<?xml version="1.0" encoding="UTF-8" standalone="no"?>
<!-- Created with Inkscape (http://www.inkscape.org/) -->

<svg
   xmlns:dc="http://purl.org/dc/elements/1.1/"
   xmlns:cc="http://creativecommons.org/ns#"
   xmlns:rdf="http://www.w3.org/1999/02/22-rdf-syntax-ns#"
   xmlns:svg="http://www.w3.org/2000/svg"
   xmlns="http://www.w3.org/2000/svg"
   xmlns:sodipodi="http://sodipodi.sourceforge.net/DTD/sodipodi-0.dtd"
   xmlns:inkscape="http://www.inkscape.org/namespaces/inkscape"
   width="83.82mm"
   height="90.875557mm"
   viewBox="0 0 297 322"
   id="svg5512"
   version="1.1"
   inkscape:version="0.91 r13725"
   sodipodi:docname="icosaedron.svg">
  <defs
     id="defs5514" />
  <sodipodi:namedview
     id="base"
     pagecolor="#ffffff"
     bordercolor="#666666"
     borderopacity="1.0"
     inkscape:pageopacity="0"
     inkscape:pageshadow="2"
     inkscape:zoom="0.35"
     inkscape:cx="-582.28575"
     inkscape:cy="-163.71422"
     inkscape:document-units="px"
     inkscape:current-layer="layer1"
     showgrid="false"
     fit-margin-top="0"
     fit-margin-left="0"
     fit-margin-right="0"
     fit-margin-bottom="0"
     inkscape:window-width="1375"
     inkscape:window-height="876"
     inkscape:window-x="65"
     inkscape:window-y="24"
     inkscape:window-maximized="1" />
  <metadata
     id="metadata5517">
    <rdf:RDF>
      <cc:Work
         rdf:about="">
        <dc:format>image/svg+xml</dc:format>
        <dc:type
           rdf:resource="http://purl.org/dc/dcmitype/StillImage" />
        <dc:title></dc:title>
      </cc:Work>
    </rdf:RDF>
  </metadata>
  <g
     inkscape:label="Livello 1"
     inkscape:groupmode="layer"
     id="layer1"
     transform="translate(-211.50002,-388.5051)">
    <g
       id="g5585"
       transform="translate(-31.428571,-2.8571426e-6)">
      <path
         style="fill:#cacaca"
         d="m 388.92859,709.04909 c -2.475,-0.5302 -35.54175,-16.507 -73.48166,-35.50399 -53.60586,-26.84114 -69.26471,-35.09724 -70.25151,-37.04 -1.78162,-3.50754 -1.73807,-167.45662 0.0454,-170.9297 1.39725,-2.72097 12.61437,-9.08839 58.18777,-33.03037 18.15,-9.5351 36.15,-19.00851 40,-21.05202 37.26263,-19.77835 40.79655,-21.39302 46.72478,-21.34884 5.46802,0.0408 8.29366,1.3284 63,28.70909 31.50137,15.76653 61.77522,31.14132 67.27522,34.16619 5.5,3.02488 11.44627,6.17086 13.21393,6.99106 1.76767,0.82021 3.73337,2.46187 4.36824,3.64813 0.85526,1.59807 1.05198,23.90843 0.75934,86.11775 l -0.39497,83.96092 -2.68587,2.1339 c -5.45221,4.33172 -97.75164,53.69429 -126.26067,67.52535 -12.89143,6.25423 -14.99004,6.83289 -20.5,5.65253 z"
         id="path5599"
         inkscape:connector-curvature="0" />
      <path
         style="fill:#acacac"
         d="m 383.92859,706.29905 c -12.5991,-5.27851 -135.05762,-67.11801 -137.62725,-69.49946 l -2.40658,-2.23035 0.0516,-79.42745 c 0.0284,-43.6851 0.32288,-81.71766 0.6544,-84.51681 l 0.60276,-5.08935 9.11251,-5.40523 c 9.27743,-5.50304 34.5037,-18.92881 97.11252,-51.68465 25.59145,-13.389 35.94086,-18.32026 38.5,-18.34438 4.27691,-0.0403 111.97054,53.31154 142.5,70.59508 l 6,3.39676 -0.002,79.95594 c -0.002,83.97988 -0.0664,85.24766 -4.26345,83.77122 -1.31346,-0.46205 -1.18832,-0.0793 0.51525,1.57619 2.945,2.86182 2.8569,3.41707 -1,6.30287 -10.64006,7.96109 -135.69191,73.83677 -140.04475,73.77374 -1.21289,-0.0176 -5.58025,-1.44592 -9.70525,-3.17412 z m 13.23469,-3.19365 c 1.20475,-1.80429 0.86454,-5.27306 -0.63962,-6.5214 -1.72049,-1.42788 -3.32787,-10.42855 -4.12152,-23.0789 -0.79246,-12.63151 -1.0146,-13.46986 -3.91978,-14.79355 -1.3718,-0.62503 -5.09509,-5.06513 -8.27398,-9.86689 -5.40557,-8.16521 -8.27979,-11.0631 -8.27979,-8.348 0,0.63703 2.025,4.28856 4.5,8.11452 2.475,3.82596 4.5,7.16725 4.5,7.4251 0,0.99674 -6.18228,0.38602 -15.5,-1.53118 -11.5114,-2.36856 -11.5,-2.36788 -11.5,-0.68414 0,2.29957 7.28874,5.52248 17.48554,7.7317 5.43287,1.17708 10.85788,2.51271 12.05556,2.96807 2.75997,1.04933 3.15516,3.0884 4.50863,23.26308 1.18021,17.59192 1.98649,19.8222 6.33841,17.53284 1.16152,-0.61103 2.44247,-1.60609 2.84655,-2.21125 z M 251.42859,633.0816 c -1.74144,-1.40103 -3.16261,-1.95993 -3.3876,-1.33223 -0.47099,1.31396 2.67498,3.75763 4.82873,3.75076 1.0166,-0.003 0.51528,-0.84455 -1.44113,-2.41853 z m 179.8494,-38.8265 c 2.27659,-3.01851 5.39737,-8.06556 23.96057,-38.75 3.82644,-6.325 10.06467,-17.42201 13.86273,-24.66003 3.79806,-7.23802 7.56295,-13.70562 8.36643,-14.37245 0.80348,-0.66682 1.46087,-2.24993 1.46087,-3.51801 0,-2.05669 -0.62076,-2.38331 -5.75,-3.02543 -6.55841,-0.82104 -61.56071,0.16933 -65.04089,1.17112 -3.01709,0.86849 -2.28891,2.74354 1.37339,3.53649 1.60462,0.34742 15.82844,0.68492 31.60848,0.75 15.78004,0.0651 28.92092,0.49036 29.20196,0.94509 0.28104,0.45472 -7.39923,14.29222 -17.06726,30.75 -18.39978,31.32174 -25.6758,44.40367 -26.79338,48.17322 -1.02518,3.45787 1.91532,2.84745 4.8171,-1 z M 308.62893,513.37993 c 2.26727,-0.10136 2.039,-0.27311 -1.20034,-0.90315 -2.2,-0.4279 -5.00703,-1.09763 -6.23785,-1.48829 -2.689,-0.85349 -4.15772,1.73259 -2.27344,4.00301 1.06304,1.28088 1.56367,1.27931 4.06222,-0.0127 1.56736,-0.81051 4.1096,-1.52998 5.64941,-1.59883 z m -54.42484,-38.48366 c 0.88191,-0.88191 -4.35258,-8.46157 -5.39753,-7.81575 -1.69854,1.04975 -0.86209,5.32229 1.34454,6.86788 2.43123,1.7029 3.13368,1.86718 4.05299,0.94787 z m 281.42334,-5.04875 c 0.70057,-1.82566 -3.75366,-6.34242 -6.2546,-6.34242 -2.01593,0 -1.82197,0.81599 1.10665,4.65561 2.83375,3.71523 4.19803,4.16226 5.14795,1.68681 z M 428.92859,445.5051 c 0,-0.55 -0.45,-1 -1,-1 -0.55,0 -1,0.45 -1,1 0,0.55 0.45,1 1,1 0.55,0 1,-0.45 1,-1 z m -35.8469,-49.30823 c 1.92101,-0.76947 -1.01142,-2.78961 -3.55277,-2.4475 -2.5729,0.34636 -6.03972,5.1683 -5.23102,7.27574 0.55644,1.45007 1.10144,1.27385 4.04004,-1.30628 1.86826,-1.64035 4.00295,-3.22524 4.74375,-3.52196 z"
         id="path5597"
         inkscape:connector-curvature="0" />
      <path
         style="fill:#969696"
         d="m 381.92859,704.68134 c -40.87826,-19.91743 -132.1314,-65.84886 -134.75,-67.82517 l -3.25,-2.45285 0,-77.24911 c 0,-54.53251 0.32131,-77.57042 1.09264,-78.34175 0.75848,-0.75848 0.77982,-1.67715 0.0698,-3.00388 -0.63174,-1.18041 -0.67302,-2.46422 -0.10796,-3.35736 0.5032,-0.79537 0.92181,-2.68362 0.93023,-4.19612 0.008,-1.5125 0.47388,-2.75 1.03436,-2.75 0.58765,0 0.75342,1.05835 0.39159,2.5 -1.0665,4.24929 0.23734,6.97093 3.98951,8.32773 1.90803,0.68996 6.98606,3.53627 11.2845,6.32513 l 7.81535,5.07067 -9.33321,-9.56191 c -7.46356,-7.64645 -9.20288,-9.97255 -8.68261,-11.61177 0.48969,-1.54289 0.20996,-2.04985 -1.13108,-2.04985 -1.55833,0 -1.59811,-0.17616 -0.31739,-1.40528 2.0712,-1.98774 25.34018,-14.59591 68.96429,-37.36793 5.775,-3.01458 13.65,-7.16737 17.5,-9.22843 3.85,-2.06106 14.65,-7.69955 24,-12.52999 9.35,-4.83043 19.41839,-10.08666 22.3742,-11.68049 5.30615,-2.86119 5.42013,-2.87635 9,-1.19707 28.90084,13.55705 113.60602,55.98024 130.1258,65.17136 3.025,1.68302 7.85073,4.25215 10.72384,5.70918 l 5.22384,2.64914 0.0389,69.87289 c 0.0257,46.12941 -0.30526,70.08556 -0.97383,70.49877 -0.5679,0.35098 -1.01271,4.7726 -1.01271,10.06687 0,5.19254 -0.11547,9.44098 -0.2566,9.44098 -0.14113,0 -1.71613,-0.41859 -3.5,-0.93019 -1.78391,-0.51161 -3.24344,-0.79319 -3.24344,-0.62573 0,0.16746 0.62751,2.08303 1.39447,4.25682 2.6194,7.42416 1.80207,8.49088 -12.76032,16.65392 -18.43624,10.33454 -70.8024,38.16657 -98.13415,52.15719 -12.65,6.4753 -23.4275,12.15909 -23.95,12.63064 -1.74747,1.57705 -4.98285,0.69507 -14.55,-3.96641 z m 12.3826,1.86839 c 3.70725,-1.40949 5.44331,-4.76621 6.56861,-12.70059 0.65507,-4.61889 2.92998,-11.62997 6.52716,-20.11622 3.0369,-7.16445 5.52163,-13.58279 5.52163,-14.26297 0,-0.9044 -1.27631,-1.05347 -4.75,-0.55477 -13.48222,1.93555 -14.17797,1.94119 -14.8766,0.12059 -0.37966,-0.98936 0.25942,-3.75068 1.47816,-6.38679 1.55888,-3.37184 1.66782,-3.96805 0.3977,-2.1766 -4.64383,6.54997 -5.91922,7.55152 -7.71667,6.05976 -0.93307,-0.77437 -6.18928,-8.24736 -11.68047,-16.60664 -7.79369,-11.86439 -10.37783,-15.09568 -11.77929,-14.72919 -1.31034,0.34266 -3.09138,-1.29567 -6.59323,-6.06495 -5.16247,-7.03094 -6.68094,-8.12406 -9.32186,-6.71068 -0.93356,0.49963 -5.28846,1.64857 -9.67756,2.55322 -4.3891,0.90464 -8.33152,1.99308 -8.76093,2.41875 -0.42941,0.42567 0.97195,2.98761 3.11413,5.6932 2.14219,2.70559 7.13683,9.64425 11.0992,15.41925 5.56618,8.11248 7.09079,11.07508 6.70504,13.02914 -0.41724,2.1136 0.10528,2.85316 3.18034,4.50129 2.52834,1.35511 7.14677,6.5942 14.76115,16.74487 12.46234,16.61346 18.42089,26.12185 18.42089,29.39524 0,1.21883 1.00013,2.91657 2.22251,3.77276 2.62954,1.8418 2.06918,1.7765 5.16009,0.60133 z m -128.8826,-68.1011 c 2.61862,-0.0731 2.35661,-0.30339 -2.06105,-1.81125 -7.18884,-2.45374 -11.60272,-5.25156 -14.07679,-8.92284 l -2.14464,-3.18244 -0.6683,3.56231 c -0.44056,2.34839 -0.22204,4.10184 0.64125,5.14563 2.00159,2.42009 11.05627,6.36311 13.30953,5.79586 1.1,-0.27692 3.35,-0.54119 5,-0.58727 z m 156.5,-31.44353 c 4.76915,-7.31997 7.69312,-8.42419 10.59196,-4 0.90093,1.375 2.17796,2.5 2.83784,2.5 1.44041,0 1.57379,-0.27351 17.06763,-35 15.11661,-33.88102 23.50352,-50.5 25.48526,-50.5 1.48245,0 10.21712,16.45022 15.66378,29.5 3.4772,8.33112 4.35353,9.27287 4.35353,4.67856 0,-2.28572 -0.95511,-5.16471 -2.47569,-7.46246 -3.76824,-5.6942 -14.52431,-29.77191 -14.52431,-32.51301 0,-2.59493 8.59888,-10.18574 32.39654,-28.59862 14.53931,-11.24945 16.87915,-12.56247 19.69814,-11.0538 2.53422,1.35628 2.56253,1.32965 3.40985,-3.20696 0.87424,-4.68076 -0.83949,-6.48602 -9.75369,-10.2746 -6.20979,-2.6392 -6.74914,-2.71367 -8.31474,-1.14807 -2.0048,2.0048 -2.06613,1.93967 3.47215,3.68764 6.07159,1.9163 7.22745,4.04256 4.05829,7.46542 -6.97624,7.53471 -45.44133,37.41243 -48.17607,37.42072 -2.25389,0.007 -5.59356,-3.68444 -12.56038,-13.88273 -3.15155,-4.61335 -7.47471,-10.19979 -9.60703,-12.41432 -4.64298,-4.82198 -17.57595,-22.05487 -21.22585,-28.28296 -1.74646,-2.98011 -2.40832,-5.23441 -2.00666,-6.83474 0.50703,-2.02019 0.0996,-2.56084 -2.64561,-3.51063 -3.62538,-1.25431 -3.63164,-1.26114 -15.17709,-16.56944 -12.29086,-16.29666 -18.64003,-26.40639 -18.33215,-29.19013 0.37679,-3.40677 -4.10809,-6.08911 -7.94545,-4.75206 -3.46469,1.2072 -10.42525,13.44219 -7.64734,13.44219 2.80182,0 1.07751,5.4154 -9.09586,28.56662 -5.30101,12.06336 -12.60777,28.75944 -16.23723,37.10241 l -6.59903,15.16903 3.3946,4.83097 c 1.86704,2.65703 3.89862,5.73097 4.51464,6.83097 1.33347,2.38113 -0.2234,2.52495 27.37997,-2.52933 25.68365,-4.70277 29.82512,-5.08127 31.26926,-2.85776 1.40214,2.15885 -4.16665,14.19485 -7.4272,16.05264 -1.85919,1.05932 -12.54761,1.35435 -51.84206,1.43095 -28.48266,0.0555 -50.27597,-0.29548 -51.32756,-0.82669 -1.01338,-0.51191 -1.58424,-1.55728 -1.28138,-2.3465 0.70552,-1.83856 0.10479,-1.79431 -2.96721,0.21854 -2.0211,1.32428 -2.99051,1.42099 -5.01187,0.5 -3.71782,-1.69395 -3.84593,-1.44629 -1.00087,1.93488 1.42389,1.69219 2.58889,3.53994 2.58889,4.10609 0,0.56615 1.29168,2.66913 2.87039,4.67328 1.57872,2.00414 7.03889,10.3939 12.13373,18.6439 11.3586,18.39283 15.03206,23.79715 15.71281,23.1164 0.28829,-0.28828 -4.78715,-9.59412 -11.27874,-20.67964 -6.49159,-11.08552 -11.83333,-21.1121 -11.87054,-22.28129 -0.10277,-3.22933 3.9234,-3.49889 53.49122,-3.58135 34.34944,-0.0571 44.95361,0.21452 46.28172,1.18566 2.05553,1.50304 1.81255,2.38399 -5.48494,19.88553 -2.67061,6.40491 -4.85565,12.15094 -4.85565,12.76894 0,0.618 4.80636,7.75261 10.6808,15.85469 14.79961,20.41174 20.3192,29.07895 20.3192,31.90647 0,1.33034 -1.84067,5.7726 -4.09039,9.87169 -2.24971,4.0991 -3.87757,7.4529 -3.61746,7.4529 0.26012,0 2.37865,-2.925 4.70785,-6.5 z m -74.6409,-157.28338 c 2.55249,-2.90586 4.6409,-5.79333 4.6409,-6.41661 0,-1.50552 -6.58956,5.89321 -8.63914,9.69999 -0.88837,1.65 -1.39639,2.775 -1.12894,2.5 0.26745,-0.275 2.57468,-2.87752 5.12718,-5.78338 z"
         id="path5595"
         inkscape:connector-curvature="0" />
      <path
         style="fill:#868686"
         d="m 390.92859,709.12173 c 0,-0.88773 4.04569,-1.35173 4.55802,-0.52275 0.30801,0.49837 -0.59154,0.90612 -1.999,0.90612 -1.40746,0 -2.55902,-0.17252 -2.55902,-0.38337 z m 6.77755,-3.5825 c 2.5944,-2.16357 5.1956,-9.76186 5.21163,-15.22355 0.007,-2.24588 2.36507,-9.26244 6.02784,-17.93299 3.30935,-7.83396 5.67185,-14.56556 5.25,-14.95913 -0.42186,-0.39356 -4.46757,-0.0335 -8.99047,0.80016 -9.50036,1.75109 -11.73884,1.34096 -10.71762,-1.96369 0.85119,-2.75445 16.94807,-30.74532 25.12633,-43.69217 7.54352,-11.94202 8.56979,-12.62595 12.30692,-8.2016 1.57144,1.86043 3.33323,3.05576 3.94583,2.67715 1.56682,-0.96835 5.53906,-9.12863 15.35214,-31.53831 12.3645,-28.23623 14.38476,-32.48531 16.1368,-33.93937 0.86518,-0.71804 1.57305,-1.94288 1.57305,-2.72187 0,-2.81295 7.29686,-17.33876 8.70991,-17.33876 1.80719,0 17.29009,31.76299 17.29009,35.47042 0,2.18243 0.40239,2.61046 2.2084,2.34913 2.0132,-0.2913 2.18309,-0.80571 1.92193,-5.81955 -0.19295,-3.70447 -0.90293,-6.16228 -2.17479,-7.52867 -2.27547,-2.4446 -13.80378,-26.46254 -14.59102,-30.39875 -0.65427,-3.27132 0.8725,-4.71199 25.63548,-24.18982 19.93644,-15.68142 24.74085,-17.93693 26.71193,-12.54038 1.15906,3.17333 0.41551,138.19224 -0.77832,141.33223 -0.95444,2.51039 -1.04486,2.53468 -2.96517,0.79683 -3.1048,-2.80981 -3.54899,-0.90166 -1.11757,4.80092 l 2.22891,5.22764 -3.28989,2.79634 c -1.80944,1.53798 -3.17914,3.35696 -3.04378,4.04218 0.22802,1.15423 -22.70966,14.28617 -49.24611,28.19365 -6.05,3.17075 -15.275,8.11078 -20.5,10.97786 -13.73204,7.53509 -58.72944,30.49592 -59.6874,30.4567 -0.44693,-0.0183 0.2123,-0.88797 1.46495,-1.9326 z M 526.92859,615.0051 c 0,-0.825 -0.43588,-1.5 -0.96862,-1.5 -0.53273,0 -0.70959,0.675 -0.39301,1.5 0.31659,0.825 0.75246,1.5 0.96862,1.5 0.21615,0 0.39301,-0.675 0.39301,-1.5 z m -209.56486,57.13821 c -36.81433,-18.34898 -68.06014,-34.35289 -69.43514,-35.56425 -2.85795,-2.51782 -2.61615,-2.4608 5.36632,1.26535 3.88275,1.81244 7.4331,2.71592 10.5,2.672 9.48653,-0.13586 11.63555,0.14738 33.88909,4.46647 37.76212,7.32909 56.41035,11.4149 57.9567,12.69826 1.93004,1.60179 16.53297,21.11207 23.66119,31.61259 3.47607,5.12056 5.6267,9.34409 5.6267,11.05 0,1.51876 0.54,3.30137 1.2,3.96137 0.93333,0.93333 0.86336,1.2 -0.31486,1.2 -0.83317,0 -31.63567,-15.0128 -68.45,-33.36179 z m 68.92504,-17.869 c -1.11349,-1.24806 -3.84375,-5.19421 -6.06724,-8.76921 -2.22349,-3.575 -7.60446,-12.125 -11.95771,-19 -4.35326,-6.875 -11.62823,-18.67248 -16.16661,-26.21662 -4.53838,-7.54415 -8.71607,-14.00369 -9.28376,-14.35454 -1.30068,-0.80386 1.75198,5.20192 8.149,16.0323 5.19941,8.80279 7.38189,13.53886 6.239,13.53886 -0.37271,0 -2.11361,-1.3918 -3.86869,-3.09288 -3.06597,-2.97166 -3.28755,-3.02964 -5.65354,-1.47938 -1.35438,0.88742 -5.94249,2.27933 -10.19579,3.09312 -11.57354,2.21438 -11.44322,1.91291 -4.65429,10.76714 10.82942,14.12389 17.40896,24.46306 16.71628,26.26814 -0.77051,2.00793 -1.01769,1.9793 -27.11683,-3.14008 -41.31327,-8.10366 -61.08187,-12.55965 -63.51934,-14.31773 -1.38564,-0.99943 -3.47472,-2.12036 -4.6424,-2.49097 -1.34268,-0.42615 -2.7717,-2.40762 -3.88766,-5.3906 -2.45103,-6.55159 -3.23325,-35.84235 -2.61872,-98.0594 0.38615,-39.09399 0.75614,-49.44578 1.78137,-49.83919 1.98429,-0.76145 5.82718,2.41569 5.85869,4.84372 0.0154,1.18948 0.59056,2.35216 1.27806,2.58373 0.6875,0.23158 1.25,-0.29145 1.25,-1.16229 0,-4.0762 6.68932,0.43838 25.17277,16.98896 9.44884,8.46074 12.02202,11.34581 12.98451,14.55832 0.6602,2.20357 1.98646,4.55709 2.94723,5.23004 0.96078,0.67295 6.32237,8.6296 11.91466,17.68145 10.8481,17.55906 25.00501,38.26706 25.69164,37.58042 0.6986,-0.69859 -7.14337,-15.59821 -17.79793,-33.81581 -13.47405,-23.03848 -14.20038,-24.50212 -12.65544,-25.50229 0.68341,-0.44243 22.73226,-0.948 48.99744,-1.12349 40.39594,-0.26991 47.83831,-0.10167 48.29628,1.09179 0.29777,0.77598 -2.15599,8.08044 -5.4528,16.23212 -4.95819,12.2596 -5.80513,15.18196 -4.90025,16.90821 0.60168,1.14782 6.58288,9.73695 13.29156,19.08695 16.38606,22.83754 17.51033,24.59191 17.51033,27.324 0,3.1785 -32.32439,59.11746 -34.59927,59.87576 -0.5588,0.18626 -1.92705,-0.68248 -3.04055,-1.93055 z M 287.92859,541.28259 c 0,-1.37724 -3.05332,-2.12417 -4.15986,-1.01763 -0.70056,0.70056 -0.63756,1.75014 0.19885,3.313 1.17938,2.20369 1.27446,2.21895 2.59265,0.41623 0.7526,-1.02924 1.36836,-2.24946 1.36836,-2.7116 z m -43.75842,16.63918 c -0.21299,-67.95922 -0.064,-77.08334 1.25842,-77.08334 1.28547,0 1.5,2.98804 1.5,20.89235 0,13.55729 -0.34818,20.67717 -0.99172,20.27944 -0.65,-0.40172 -1.08362,18.96012 -1.25842,56.19098 -0.24779,52.77489 -0.28384,51.33651 -0.50828,-20.27943 z m 292.88186,42.50008 c -0.93932,-2.12208 -1.13375,-4.53807 -0.6237,-7.75 0.40759,-2.56671 1.04441,-32.11675 1.41516,-65.66675 l 0.67409,-61 0.20551,68.75 c 0.11302,37.8125 0.0903,68.75 -0.0504,68.75 -0.14074,0 -0.87004,-1.38746 -1.62067,-3.08325 z M 304.92859,508.73106 c 0,-1.81318 25.40884,-36.34819 41.90838,-56.96073 3.62539,-4.52913 8.70756,-11.50413 11.29372,-15.5 6.4255,-9.92806 19.60409,-26.76523 20.94936,-26.76523 2.5806,0 1.04671,3.9363 -21.55501,55.31477 -5.27805,11.99813 -9.59645,22.26262 -9.59645,22.80999 0,0.54737 1.575,3.05794 3.5,5.57903 1.925,2.5211 3.5,5.6441 3.5,6.94001 0,1.60436 0.57574,2.3562 1.80434,2.3562 0.99238,0 12.57988,-2.02495 25.75,-4.4999 13.17011,-2.47494 25.68194,-4.49994 27.80407,-4.5 3.70858,-10e-5 3.83181,0.10668 3.1734,2.7499 -0.37675,1.5125 -1.88804,5 -3.35841,7.75 l -2.6734,5 -16.5,0.77536 c -9.075,0.42645 -26.175,0.57722 -38,0.33504 -31.89605,-0.65325 -36.98679,-0.65159 -42.75,0.0139 -4.78886,0.5529 -5.25,0.43008 -5.25,-1.39834 z m -15.34181,-5.77796 c -12.80655,-10.56345 -36.65819,-33.24514 -36.65819,-34.86009 0,-0.52745 0.97844,-2.00051 2.17431,-3.27346 1.50082,-1.59754 1.7442,-2.31445 0.78572,-2.31445 -1.14974,0 -1.13672,-0.24754 0.0757,-1.43904 1.9508,-1.91716 21.87612,-12.87095 46.46429,-25.54337 11,-5.66926 20.45,-10.62861 21,-11.02079 0.55,-0.39219 8.2,-4.43443 17,-8.98278 8.8,-4.54834 22.37538,-11.58718 30.16751,-15.64187 7.79213,-4.05468 14.51382,-7.37215 14.93709,-7.37215 0.42327,0 -0.38164,1.2375 -1.78869,2.75 -1.40706,1.5125 -2.8414,3.95394 -3.18743,5.42542 -0.65557,2.7878 -25.14483,36.16992 -31.96318,43.57007 -2.15143,2.33502 -5.76876,6.9459 -8.0385,10.24641 -8.75565,12.73191 -39.67925,52.81425 -41.19505,53.39592 -2.54024,0.97478 -2.70234,0.89285 -9.77356,-4.93982 z m 179.49392,-4.698 c -3.76411,-5.0875 -7.40905,-10.31858 -8.09985,-11.62462 -0.69081,-1.30604 -3.80128,-4.90604 -6.91215,-8 -6.2344,-6.2005 -21.14011,-26.95765 -21.14011,-29.43895 0,-0.86262 0.36141,-1.79176 0.80314,-2.06476 1.63201,-1.00864 82.69371,15.32831 88.94686,17.9261 5.49027,2.28087 4.48406,4.01723 -8.75,15.09951 -12.82638,10.74087 -35.07172,27.35272 -36.62871,27.35272 -0.75644,0 -4.45506,-4.1625 -8.21918,-9.25 z m 3.34789,-46.19981 c -45.91777,-9.31185 -43.49089,-8.59688 -48.50088,-14.28852 -4.60141,-5.22748 -21.59181,-28.67822 -25.00035,-34.50635 -4.54692,-7.7746 -1.24918,-6.49159 50.66895,19.7132 67.53966,34.08949 71.91852,36.63697 62.66561,36.45687 -2.10833,-0.041 -20.03333,-3.35987 -39.83333,-7.3752 z m 49.94113,5.98161 c -1.55186,-1.17377 -1.62852,-1.47457 -0.38226,-1.5 0.85738,-0.0175 2.43238,0.62889 3.5,1.4364 1.55186,1.17377 1.62852,1.47457 0.38226,1.5 -0.85738,0.0175 -2.43238,-0.62889 -3.5,-1.4364 z m -16.69431,-8.76204 c -4.26425,-2.2532 -7.53561,-4.3143 -7.2697,-4.58022 0.55937,-0.55936 12.05809,4.97153 15.02288,7.22601 3.54953,2.69914 0.19725,1.55516 -7.75318,-2.64579 z m -14.74682,-7.76976 c -0.825,-0.53316 -1.05,-0.96937 -0.5,-0.96937 0.55,0 1.675,0.43621 2.5,0.96937 0.825,0.53316 1.05,0.96937 0.5,0.96937 -0.55,0 -1.675,-0.43621 -2.5,-0.96937 z m -10.55887,-5.45026 c -1.87274,-1.39917 -1.86131,-1.43015 0.32445,-0.8793 1.24607,0.31404 2.51013,0.96666 2.80902,1.45027 0.84582,1.36855 -0.98367,1.03519 -3.13347,-0.57097 z m -4.94113,-2.54974 c -0.33992,-0.55 -0.16803,-1 0.38197,-1 0.55,0 1.27811,0.45 1.61803,1 0.33992,0.55 0.16803,1 -0.38197,1 -0.55,0 -1.27811,-0.45 -1.61803,-1 z m -5.5,-3 c -0.90129,-0.58246 -1.02463,-0.97549 -0.30902,-0.98469 0.65504,-0.008 1.4691,0.43469 1.80902,0.98469 0.7673,1.24153 0.42112,1.24153 -1.5,0 z m -9,-4.5 c -1.375,-0.78602 -2.02351,-1.44508 -1.44113,-1.46456 0.58238,-0.0195 1.93238,0.62525 3,1.43276 2.46898,1.86744 1.68038,1.88353 -1.55887,0.0318 z m -64,-31.5 c -0.90129,-0.58246 -1.02463,-0.97549 -0.30902,-0.98469 0.65504,-0.008 1.4691,0.43469 1.80902,0.98469 0.7673,1.24153 0.42112,1.24153 -1.5,0 z m -9.37051,-3.47686 c 0.32147,-0.83773 1.21134,-1.52314 1.9775,-1.52314 1.95331,0 1.73358,0.74736 -0.58448,1.98796 -1.61335,0.86343 -1.86987,0.77784 -1.39302,-0.46482 z"
         id="path5593"
         inkscape:connector-curvature="0" />
      <path
         style="fill:#727272"
         d="m 391.65956,708.84916 c 0.67703,-0.27392 2.02703,-0.29059 3,-0.0371 0.97297,0.25354 0.41903,0.47766 -1.23097,0.49804 -1.65,0.0204 -2.44606,-0.18706 -1.76903,-0.46099 z M 332.92859,676.4166 c -64.00418,-32.40462 -66.57024,-33.823 -64.03054,-35.39263 1.83185,-1.13214 82.29969,14.86405 85.70071,17.03644 4.04427,2.58326 29.32983,37.84318 29.32983,40.89953 0,0.84984 -0.7875,1.53621 -1.75,1.52528 -0.9625,-0.0109 -23.125,-10.84182 -49.25,-24.06862 z m 70,22.24853 c 0,-1.08611 6.975,-11.42222 15.5,-22.96913 8.525,-11.54691 15.5,-21.52159 15.5,-22.16596 0,-2.58878 -3.47583,-0.26724 -5.59175,3.73478 -3.78556,7.15991 -20.30156,29.01976 -23.13365,30.61867 -2.28331,1.28909 -1.15013,-2.4464 5.3847,-17.75055 3.02301,-7.07969 5.12385,-13.20922 4.66854,-13.62117 -0.45531,-0.41196 -4.97237,-0.039 -10.03791,0.82876 -5.06554,0.86777 -9.55599,1.23185 -9.97877,0.80906 -0.42279,-0.42278 0.69719,-3.596 2.48882,-7.05159 5.60479,-10.81012 27.83618,-46.96081 29.54027,-48.03573 1.28813,-0.81253 2.23331,-0.30389 4.56984,2.45921 l 2.94582,3.48362 2.02278,-2 c 1.11253,-1.1 8.10148,-15.68703 15.531,-32.41561 7.42952,-16.72859 14.0741,-30.76535 14.76572,-31.1928 1.78464,-1.10297 2.61534,-0.22227 13.3901,14.19607 5.30713,7.10179 10.02993,12.91234 10.49512,12.91234 0.46518,0 1.74153,-2.025 2.83635,-4.5 2.12895,-4.81286 3.84157,-5.55144 6.37666,-2.75 2.82567,3.12256 21.4482,42.10904 22.11958,46.30758 0.35851,2.24205 2.44171,7.6363 4.62931,11.98724 2.18761,4.35093 3.97747,8.35695 3.97747,8.90225 0,0.54531 -2.55056,2.6928 -5.6679,4.7722 -3.11735,2.0794 -7.05485,4.72315 -8.75,5.87501 -1.69516,1.15185 -16.3571,9.21142 -32.5821,17.91015 -29.00828,15.55225 -37.3522,20.28573 -33.60856,19.06603 1.6014,-0.52175 1.69764,-0.38272 0.62756,0.90665 -1.42338,1.71506 -4.50188,2.11322 -3.47348,0.44923 0.36496,-0.59051 -1.29599,-0.0852 -3.69098,1.12292 -5.32201,2.6846 -6.14247,3.41098 -2.85454,2.52722 2.09189,-0.56228 2.21303,-0.4921 0.74208,0.42989 -0.96686,0.60603 -2.20625,0.82479 -2.75421,0.48613 -1.38446,-0.85564 -9.04776,3.60157 -8.2927,4.8233 0.33762,0.54627 0.11468,0.68472 -0.49541,0.30766 -0.61009,-0.37706 -5.96712,1.74364 -11.90451,4.71266 -13.88717,6.94434 -15.29525,7.38843 -15.29525,4.82391 z M 379.9939,643.77937 c -17.73637,-28.08898 -40.93561,-66.88309 -48.00477,-80.27427 -4.20997,-7.975 -11.57085,-21.14543 -16.35752,-29.26762 -4.78666,-8.12219 -8.70302,-15.13923 -8.70302,-15.59344 0,-1.91903 93.25218,-3.15796 94.42855,-1.25456 0.30061,0.48642 -1.71169,6.57449 -4.4718,13.52905 -2.7601,6.95456 -5.2489,13.86909 -5.53067,15.36561 -0.43098,2.28904 1.89121,6.05443 14.62917,23.72096 8.32781,11.55 15.79588,22.26093 16.59571,23.80206 1.38417,2.66704 1.23684,3.19712 -3.05735,11 -10.63314,19.32128 -29.43198,50.21978 -30.70761,50.47221 -0.82523,0.16331 -4.39404,-4.48954 -8.82069,-11.5 z m -39.06531,7.00942 c -1.375,-0.24418 -16,-3.12776 -32.5,-6.40797 -46.48886,-9.242 -50.45832,-10.3174 -47.82027,-12.95545 1.2291,-1.2291 55.44706,-11.96845 61.69169,-12.21973 l 4.98353,-0.20054 5.83545,7.5 c 8.10535,10.41738 15.8096,21.91491 15.8096,23.59363 0,1.40777 -2.66424,1.63758 -8,0.69006 z M 244.40441,557.5051 c 0,-42.625 0.12322,-60.0625 0.27383,-38.75 0.15061,21.3125 0.15061,56.1875 0,77.5 -0.15061,21.3125 -0.27383,3.875 -0.27383,-38.75 z m 9.52418,70.40059 c 0,-4.79794 43.32664,-104.42925 45.38596,-104.36681 0.61272,0.0186 5.38904,7.073 10.61404,15.67649 5.225,8.60349 12.07602,19.10353 15.22449,23.33342 7.09794,9.5359 17.68726,26.85686 22.89926,37.45631 l 3.93378,8 -4.57921,-5 c -4.58102,-5.00197 -17.84247,-22.92364 -24.9739,-33.75 -2.08317,-3.1625 -4.17387,-5.75 -4.646,-5.75 -2.78971,0 -0.11533,4.41015 21.74061,35.851 3.57517,5.14305 6.32935,9.86805 6.1204,10.5 -0.20894,0.63195 -3.94379,1.92554 -8.29966,2.87465 -8.83526,1.92513 -82.29339,16.77435 -82.98161,16.77435 -0.24099,0 -0.43816,-0.71973 -0.43816,-1.59941 z m 276.68913,-9.1916 c -0.92902,-1.02656 -1.68913,-2.12825 -1.68913,-2.4482 0,-0.31995 -1.87626,-3.88451 -4.16948,-7.92126 -7.6893,-13.53548 -24.83052,-50.71553 -24.83052,-53.85847 0,-1.69214 5.61384,-16.03667 12.62672,-32.26388 13.86306,-32.07797 18.92247,-42.71718 20.3139,-42.71718 0.5035,0 1.23752,2.5776 1.63113,5.72801 0.89084,7.13003 -0.48436,132.29292 -1.47295,134.05972 -0.5529,0.98814 -1.11352,0.85349 -2.40967,-0.57874 z m -282.20455,-8.40382 c -0.91639,-11.57828 0.47277,-129.11812 1.54653,-130.8555 0.56863,-0.92006 1.41078,-0.31423 2.96444,2.13259 4.82905,7.60513 29.27195,58.4932 29.72761,61.89039 0.52088,3.88344 -1.7393,9.67361 -18.88444,48.37851 -9.49766,21.4408 -12.58483,27.64884 -13.7494,27.64884 -0.48235,0 -1.20448,-4.13768 -1.60474,-9.19483 z m 289.9881,-76.30517 c -1.1e-4,-37.4 0.12445,-52.84536 0.27678,-34.32303 0.15233,18.52233 0.15242,49.12233 1.9e-4,68 -0.15223,18.87767 -0.27687,3.72303 -0.27697,-33.67697 z m -58.48934,17.31299 c -4.94083,-6.70286 -8.98334,-12.78774 -8.98334,-13.52196 0,-2.03426 5.75822,-14.29103 6.71392,-14.29103 1.34836,0 15.73101,29.74354 15.54927,32.15613 -0.22816,3.02888 -2.31598,7.84387 -3.40117,7.84387 -0.49243,0 -4.93784,-5.48415 -9.87868,-12.18701 z m 16.29251,-8.06299 c -1.62647,-2.09805 -13.27585,-27.61312 -13.27585,-29.07746 0,-0.75411 9.18062,-8.63894 20.40137,-17.52183 17.83717,-14.12076 22.59863,-17.43668 22.59863,-15.73788 0,1.96707 -27.43355,63.58717 -28.30929,63.58717 -0.2452,0 -0.88189,-0.5625 -1.41486,-1.25 z m -213.10139,-6.03979 c -2.21292,-2.66641 -19.09591,-37.4695 -21.14743,-43.59393 -3.08682,-9.21511 -2.26432,-10.10961 4.71492,-5.12759 8.53256,6.09084 26.23063,22.11073 27.84548,25.20511 1.57868,3.02505 0.6592,6.7772 -2.52557,10.3062 -0.9927,1.1 -2.04959,3.94743 -2.34864,6.32762 -0.49567,3.94508 -2.95049,8.17238 -4.74576,8.17238 -0.39741,0 -1.20427,-0.58041 -1.793,-1.28979 z m 22.82554,-29.20996 c 0,-1.6202 22.40379,-31.64833 37.92613,-50.83293 5.26563,-6.50798 10.39374,-13.4317 11.39579,-15.38604 2.08484,-4.06611 18.52697,-26.08649 21.02177,-28.15373 1.45066,-1.20204 1.65631,-1.11447 1.65631,0.70529 0,2.12925 -7.35358,20.10608 -11.52202,28.16716 -1.27984,2.475 -6.20245,13.61126 -10.93914,24.74725 -9.41999,22.14648 -9.23611,20.78183 -3.77205,27.99254 1.35026,1.78189 2.21145,3.87454 1.91374,4.65034 -0.61336,1.59839 -12.35902,4.56313 -30.08178,7.59299 -14.3157,2.44739 -17.59875,2.54386 -17.59875,0.51713 z m 37,0.61242 -4.5,-0.68524 5.5,-1.22776 c 5.50157,-1.22811 24.53858,-4.83489 52.2239,-9.89439 8.09815,-1.47994 15.05011,-2.36461 15.44879,-1.96592 0.39869,0.39869 -0.71036,3.63543 -2.46456,7.19276 l -3.18946,6.46788 -24.86976,0 c -13.67837,0 -26.84507,0.17953 -29.25934,0.39896 -2.41426,0.21942 -6.41457,0.0906 -8.88957,-0.28629 z m -50.7152,-4.32954 c -16.37331,-13.91639 -38.30575,-34.68581 -38.23401,-36.20654 0.11015,-2.33492 15.77728,-11.99876 43.44921,-26.80046 44.08467,-23.58086 81.25566,-42.35381 82.13019,-41.47928 0.43119,0.4312 0.0644,1.97001 -0.81519,3.41958 -3.3226,5.47593 -26.50638,35.91754 -31.40401,41.23523 -2.81053,3.05159 -5.70142,6.67334 -6.42419,8.04834 -0.72278,1.375 -10.28045,14.3125 -21.23928,28.75 -13.60807,17.92769 -20.52004,26.25 -21.80154,26.25 -1.03201,0 -3.57955,-1.44759 -5.66118,-3.21687 z m 179.43159,-4.53313 c -7.20956,-9.42049 -10.1105,-14.25777 -9.126,-15.21747 1.2982,-1.26549 14.07698,-4.34765 35.10697,-8.46755 18.65858,-3.65533 22.34481,-4.12179 22.24584,-2.81498 -0.13244,1.74869 -40.14073,32.25 -42.30203,32.25 -0.83835,0 -3.5045,-2.5875 -5.92478,-5.75 z m -17.07049,-20.74695 c -2.11547,-2.11548 -10.69947,-13.69683 -16.4531,-22.19818 -4.19053,-6.19178 -5.20872,-9.30487 -3.04331,-9.30487 1.7762,0 79.86127,15.8001 84.10051,17.01729 5.91384,1.69801 4.69297,3.60755 -3.5,5.4743 -14.94347,3.40483 -47.46904,9.61515 -53.30242,10.17738 -4.95266,0.47734 -6.37026,0.26549 -7.80168,-1.16592 z m 14.30343,-28.40179 c -21.20287,-4.27833 -39.29346,-8.19446 -40.20131,-8.70252 -2.04643,-1.14524 -8.19512,-8.99828 -20.36675,-26.01219 -8.85226,-12.37398 -10.87247,-16.38655 -8.25013,-16.38655 1.91138,0 108.30807,53.97386 111.43455,56.52951 l 2.93431,2.39856 -3.5,-0.024 c -1.925,-0.0132 -20.8478,-3.52447 -42.05067,-7.80279 z m -80.6785,-60.70543 c 0.3323,-0.33229 1.19479,-0.36781 1.91667,-0.0789 0.79773,0.31922 0.56078,0.55618 -0.60417,0.60416 -1.05416,0.0434 -1.64479,-0.19292 -1.3125,-0.52522 z"
         id="path5591"
         inkscape:connector-curvature="0" />
      <path
         style="fill:#4d4d4d"
         d="m 391.65956,708.84916 c 0.67703,-0.27392 2.02703,-0.29059 3,-0.0371 0.97297,0.25354 0.41903,0.47766 -1.23097,0.49804 -1.65,0.0204 -2.44606,-0.18706 -1.76903,-0.46099 z m -60.48469,-34.95733 c -43.38507,-21.99823 -57.6506,-29.48802 -59.24628,-31.10591 -1.0282,-1.04252 11.47862,1.13555 44.96712,7.83106 18.95691,3.79014 35.23575,7.13512 36.17519,7.43329 2.58687,0.82104 28.85769,36.6891 28.85769,39.39996 0,0.58018 -0.49753,1.05487 -1.10562,1.05487 -0.60809,0 -22.94974,-11.07597 -49.6481,-24.61327 z m 75.59455,20.39569 c 6.25101,-9.8728 29.45694,-39.94469 31.38967,-40.67697 4.361,-1.65231 75.92622,-15.28183 76.59489,-14.58742 1.03446,1.0743 -1.88673,2.78914 -33.72249,19.79629 -40.93623,21.86877 -73.56098,38.68568 -75.05008,38.68568 -0.83569,0 -0.57484,-1.06512 0.78801,-3.21758 z m 0.15917,-12.22493 c 0,-1.72117 9.31099,-22.72562 10.68148,-24.09612 1.57864,-1.57864 7.8619,-2.00921 8.73377,-0.5985 0.29331,0.47459 -2.78363,5.31209 -6.83764,10.75 -7.0992,9.52264 -12.57761,15.59648 -12.57761,13.94462 z m -10,-25.60715 c 0,-0.57731 0.71999,-2.48981 1.59998,-4.25 2.40791,-4.81638 25.17822,-42.83092 27.37403,-45.70034 l 1.91311,-2.5 3.38825,3.28315 c 2.12775,2.06175 3.97457,3.05817 4.96428,2.67838 1.83186,-0.70295 5.90318,-8.80964 15.58117,-31.02472 10.80482,-24.80165 14.96157,-33.43681 16.09564,-33.43681 1.15506,0 23.74476,29.79448 43.21649,57 12.49652,17.4599 17.86705,25.7799 17.86705,27.67957 0,0.55212 -1.6875,1.50474 -3.75,2.11694 -3.87199,1.14929 -72.5598,15.16417 -86.75,17.70024 -4.4,0.78637 -15.40785,2.7963 -24.46188,4.46651 -19.19477,3.54088 -17.03812,3.28936 -17.03812,1.98708 z m -11.81706,-7.20034 c -9.63163,-14.05163 -51.18294,-83.85377 -51.18294,-85.98233 0,-1.17623 1.94461,-2.05203 7.25,-3.26521 10.66076,-2.43779 45.89899,-9.50246 47.39778,-9.50246 1.40803,0 3.97322,3.32008 21.58886,27.94201 6.46985,9.0431 11.76336,17.05295 11.76336,17.79966 0,2.00007 -1.79874,5.29575 -17.74264,32.50833 -7.97558,13.6125 -14.87461,24.75 -15.33117,24.75 -0.45656,0 -2.14102,-1.9125 -3.74325,-4.25 z m -80.99724,-6.78388 c -21.62287,-4.36016 -39.77458,-8.21203 -40.33714,-8.55971 -2.23379,-1.38056 1.49956,-2.5241 20.68214,-6.33502 37.29639,-7.40951 41.3807,-8.01713 43.00071,-6.39713 4.85254,4.85255 19.46859,25.79018 19.46859,27.88895 0,0.79023 -0.7875,1.41287 -1.75,1.38364 -0.9625,-0.0292 -19.44144,-3.62056 -41.0643,-7.98073 z M 244.278,624.5051 c 0,-4.675 0.17226,-6.5875 0.3828,-4.25 0.21053,2.3375 0.21053,6.1625 0,8.5 -0.21054,2.3375 -0.3828,0.425 -0.3828,-4.25 z m 5.12447,-12.15458 c -0.98204,-5.81269 0.58707,-128.76506 1.6517,-129.42303 1.02503,-0.63351 30.87442,58.96381 30.87442,61.6439 0,3.01212 -30.03136,71.93371 -31.34384,71.93371 -0.2642,0 -0.79622,-1.86956 -1.18228,-4.15458 z m 280.64184,2.79401 c -2.0727,-2.49744 -29.11572,-58.70612 -29.11572,-60.51675 0,-0.98102 5.35517,-14.12245 11.90038,-29.20317 16.34477,-37.65977 18.2889,-41.91951 19.13188,-41.91951 1.50269,0 1.94078,4.95143 1.95409,22.08575 0.0281,36.14012 -1.3385,110.91425 -2.02705,110.91425 -0.39292,0 -1.22254,-0.61226 -1.84358,-1.36057 z m -286.03677,-1.0561 c -0.0434,-1.05416 0.19293,-1.64479 0.52522,-1.3125 0.33229,0.3323 0.36781,1.19479 0.0789,1.91667 -0.31922,0.79773 -0.55618,0.56078 -0.60416,-0.60417 z m 269.81163,-13.72096 c -5.09836,-6.29252 -16.82762,-22.83994 -18.54872,-26.16817 -1.67058,-3.23056 -1.04344,-7.86705 1.33063,-9.83736 1.28449,-1.06602 1.79183,-0.9516 3.01914,0.68091 3.75758,4.99819 18.68098,36.84443 18.09266,38.60938 -0.19756,0.59269 -1.94973,-0.88545 -3.89371,-3.28476 z m 24.54616,-25.86237 c 0,-14.575 0.1398,-20.5375 0.31066,-13.25 0.17086,7.2875 0.17086,19.2125 0,26.5 -0.17086,7.2875 -0.31066,1.325 -0.31066,-13.25 z m -204.69964,7.25 c -6.33582,-8.31796 -10.7371,-14.95043 -10.7371,-16.18018 0,-2.45758 2.16402,-0.71774 5.82122,4.68018 4.69677,6.93228 10.57798,17.25 9.83269,17.25 -0.29536,0 -2.50792,-2.5875 -4.91681,-5.75 z m -89.29169,-64.25 c 0,-17.325 0.13621,-24.4125 0.30269,-15.75 0.16648,8.6625 0.16648,22.8375 0,31.5 -0.16648,8.6625 -0.30269,1.575 -0.30269,-15.75 z m 30.59089,0.75 c -4.855,-10.0375 -9.11993,-19.375 -9.47761,-20.75 -0.5672,-2.1804 -0.18602,-1.98864 2.98165,1.5 4.8658,5.35882 19.03654,25.44603 19.8775,28.1766 0.76783,2.49313 -1.74865,9.3234 -3.43503,9.3234 -0.61558,0 -5.09152,-8.2125 -9.94651,-18.25 z m 10.18984,-3 c -6.96664,-8.80326 -14.40977,-19.8997 -13.77432,-20.53516 0.59615,-0.59614 1.47496,0.10871 13.30564,10.67192 4.55019,4.06272 8.52948,8.40831 8.84284,9.65686 0.59314,2.36325 -1.02309,6.45638 -2.54938,6.45638 -0.48329,0 -3.10444,-2.8125 -5.82478,-6.25 z m 22.77386,-8.10048 c 0,-1.36387 6.39005,-9.97465 30.69665,-41.36462 11.97726,-15.46763 13.73739,-17.32469 17.33995,-18.29475 3.97931,-1.07152 5.9634,-0.72192 5.9634,1.05077 0,0.50758 -3.6,9.29188 -8,19.52065 -4.4,10.22877 -8,19.40004 -8,20.38059 0,0.98056 1.35,3.48158 3,5.55784 1.65,2.07626 3,4.14579 3,4.59896 0,0.45317 -1.9125,1.34102 -4.25,1.97299 -3.52254,0.95236 -38.16871,7.92805 -39.37627,7.92805 -0.20555,0 -0.37373,-0.60771 -0.37373,-1.35048 z m -13.74603,-2.96214 c -3.75602,-2.77111 -30.23438,-26.91697 -35.24241,-32.13788 -2.69319,-2.80767 -3.17959,-3.82762 -2.13363,-4.47406 1.46502,-0.90543 77.48394,-16.12947 80.37207,-16.09583 0.9625,0.0112 1.74004,0.58289 1.72787,1.27039 -0.0267,1.50695 -39.03577,52.95739 -40.51625,53.43829 -0.57111,0.18551 -2.46455,-0.7149 -4.20765,-2.00091 z M 450.14795,471.7551 c -3.22878,-4.2625 -8.01924,-10.9 -10.64545,-14.75 l -4.77494,-7 3.05385,-0.30988 c 1.67962,-0.17043 18.93735,2.88356 38.35052,6.78664 39.50722,7.94307 42.79666,8.71348 42.79666,10.02324 0,0.5076 -1.6875,1.36342 -3.75,1.90183 -6.36243,1.66087 -54.91836,11.09817 -57.10131,11.09817 -1.39632,0 -3.94785,-2.49383 -7.92933,-7.75 z m 87.93853,-3.25 c 0,-1.375 0.22698,-1.9375 0.50439,-1.25 0.27741,0.6875 0.27741,1.8125 0,2.5 -0.27741,0.6875 -0.50439,0.125 -0.50439,-1.25 z m -270.60789,-8.93731 c 1.41014,-1.39131 13.34511,-7.86006 48.95,-26.53088 61.94146,-32.48143 60.5,-31.77586 60.5,-29.61377 0,1.68055 -29.83504,40.92331 -31.9892,42.07618 -2.48948,1.33233 -71.07161,15.00578 -75.26471,15.00578 -1.96615,0 -2.78979,-0.35154 -2.19609,-0.93731 z m 233.45,-3.81319 c -4.675,-0.79446 -22.675,-4.30307 -40,-7.79692 l -31.5,-6.35245 -3.77396,-4.30006 c -2.07568,-2.36504 -8.76654,-11.27507 -14.86859,-19.80007 -8.28753,-11.5783 -10.68387,-15.58204 -9.47119,-15.82426 1.48562,-0.29673 102.60627,50.1418 107.04074,53.39146 1.05985,0.77667 1.73485,1.57293 1.5,1.76945 -0.23485,0.19653 -4.252,-0.29269 -8.927,-1.08715 z m -144,-13.80107 c 0,-2.02257 16.51728,-24.44843 18.00696,-24.44843 1.47405,0 -7.75421,23.10773 -9.71131,24.31728 -0.44598,0.27563 -2.49495,0.81709 -4.55327,1.20323 -3.18073,0.59671 -3.74238,0.43581 -3.74238,-1.07208 z m 31.27083,-52.0526 c 0.3323,-0.33229 1.19479,-0.36781 1.91667,-0.0789 0.79773,0.31922 0.56078,0.55618 -0.60417,0.60416 -1.05416,0.0434 -1.64479,-0.19292 -1.3125,-0.52522 z"
         id="path5589"
         inkscape:connector-curvature="0" />
      <path
         style="fill:#373737"
         d="m 329.92859,671.41585 c -26.125,-13.22721 -47.9275,-24.46826 -48.45,-24.98011 -0.59287,-0.58079 -0.21695,-0.92915 1,-0.92668 2.69996,0.005 60.79637,11.69092 66.96335,13.46892 5.50746,1.58785 5.73941,1.84162 19.72928,21.58472 8.16838,11.52757 10.24404,14.95294 9.04255,14.92252 -0.43185,-0.0109 -22.16018,-10.84215 -48.28518,-24.06937 z m 80.51875,20.33925 c 5.13697,-8.07803 26.88005,-36.23744 28.31106,-36.66558 0.91861,-0.27483 15.84519,-3.23204 33.17019,-6.57156 17.325,-3.33953 32.625,-6.31321 34,-6.60817 2.19765,-0.47144 2.31859,-0.36236 1,0.90198 -0.825,0.79105 -18.375,10.32536 -39,21.18734 -20.625,10.86198 -42.06684,22.16936 -47.64853,25.12752 -5.58169,2.95816 -10.47095,5.37847 -10.86501,5.37847 -0.39406,0 0.0705,-1.2375 1.03229,-2.75 z m 2.02918,-19.5 c 0.37549,-1.2375 1.86832,-4.725 3.31739,-7.75 2.13625,-4.45951 3.15492,-5.55986 5.38468,-5.81642 1.5125,-0.17403 2.75,0.0109 2.75,0.41098 0,0.94635 -10.87913,15.40544 -11.59118,15.40544 -0.29898,0 -0.23638,-1.0125 0.13911,-2.25 z M 306.1733,641.49865 c -35.18738,-7.04885 -38.71964,-7.85196 -37.94443,-8.62716 0.37995,-0.37995 42.3735,-8.79044 53.85951,-10.787 3.40785,-0.59238 3.89926,-0.34165 7.13865,3.64222 6.31536,7.76677 14.70156,19.96454 14.70156,21.38348 0,0.7672 -0.7875,1.36244 -1.75,1.32276 -0.9625,-0.0397 -17.16488,-3.16012 -36.00529,-6.9343 z m 209.91115,-57.81668 -14.23664,-28.87316 11.44302,-26.40185 c 6.29366,-14.52102 12.94933,-29.55186 14.79039,-33.40186 l 3.34737,-7 0.25778,60.8249 c 0.14177,33.45369 -0.10742,61.47745 -0.55376,62.27502 -0.56072,1.00195 -5.21146,-7.47335 -15.04816,-27.42305 z M 251.02749,554.9551 c 0.0544,-31.3225 0.4239,-59.425 0.82112,-62.45 l 0.72223,-5.5 14.15473,28.77423 14.15474,28.77422 -1.8678,4.72578 c -4.003,10.12808 -26.32271,60.77827 -27.17829,61.67577 -0.5413,0.56782 -0.86584,-21.96047 -0.80673,-56 z m 253.46683,29.56572 c -3.62685,-4.94135 -7.09497,-10.08317 -7.70692,-11.42625 -1.11458,-2.44624 -0.4828,-7.58947 0.93226,-7.58947 0.41414,0 3.16743,4.8375 6.11843,10.75 5.9962,12.01373 8.32867,17.25 7.68392,17.25 -0.23838,0 -3.40084,-4.04292 -7.02769,-8.98428 z M 277.90141,520.94767 c -3.31285,-6.99895 -5.84338,-12.90534 -5.6234,-13.12532 0.36058,-0.36058 6.72623,7.97495 12.54773,16.43068 1.31368,1.90812 2.10548,4.35138 1.91947,5.92288 -0.6758,5.70948 -2.84431,3.44671 -8.8438,-9.22824 z M 447.4923,465.7551 c -4.68932,-6.4625 -8.53452,-12.3125 -8.54488,-13 -0.0304,-2.01962 3.38565,-1.55852 34.70731,4.68479 39.30825,7.83527 40.60642,8.13382 39.62031,9.1117 -1.08914,1.08006 -49.80831,10.95351 -54.04858,10.95351 -2.94505,0 -3.90725,-0.9635 -11.73416,-11.75 z m -171.03622,-9.61086 c 2.13628,-1.47384 44.9149,-24.0969 76.72251,-40.57396 10.8625,-5.62702 19.75,-9.72062 19.75,-9.09689 0,1.17163 -25.04968,35.00755 -27.25789,36.81866 -1.24518,1.02127 -65.50729,14.21937 -69.21462,14.21524 -1.96334,-0.002 -1.96334,-0.009 0,-1.36305 z m 189.97251,-8.61265 c -18.7,-3.7695 -34.7605,-7.15532 -35.69001,-7.52403 -2.60515,-1.03341 -26.80999,-33.27377 -26.80999,-35.71036 0,-0.89112 96.4021,47.40161 98.45,49.31862 1.51491,1.41808 -0.0244,1.15756 -35.95,-6.08423 z m -107.5,-6.87736 c 0,-1.02994 9.5387,-13.746 10.97904,-14.63617 1.52328,-0.94144 1.30694,-0.17014 -2.0716,7.38581 -2.12241,4.74668 -3.76936,7.09794 -5.25,7.49515 -2.9583,0.79361 -3.65744,0.74682 -3.65744,-0.24479 z"
         id="path5587"
         inkscape:connector-curvature="0" />
    </g>
  </g>
</svg>
